<svg xmlns="http://www.w3.org/2000/svg" xmlns:xlink="http://www.w3.org/1999/xlink" version="1.1" width="256" height="256" viewBox="0 0 256 256" xml:space="preserve">
<g style="stroke: none; stroke-width: 0; stroke-dasharray: none; stroke-linecap: butt; stroke-linejoin: miter; stroke-miterlimit: 10; fill: none; fill-rule: nonzero; opacity: 1;" transform="translate(1.4065934065934016 1.4065934065934016) scale(2.81 2.81)">
	<path d="M 8.68 54.493 c -4.227 -0.667 -7.44 -3.345 -8.424 -7.022 c -0.312 -1.167 -0.338 -3.246 -0.054 -4.407 c 0.414 -1.696 1.414 -3.161 2.374 -3.478 c 0.812 -0.268 1.881 0.097 2.415 0.825 c 0.416 0.567 0.402 1.24 -0.052 2.407 c -0.506 1.302 -0.605 1.993 -0.436 3.048 c 0.343 2.144 1.864 3.796 4.101 4.453 c 0.898 0.264 2.612 0.247 3.515 -0.034 c 3.165 -0.985 4.578 -4.399 3.032 -7.33 c -0.759 -1.441 -2.483 -2.544 -6.002 -3.842 c -3.761 -1.387 -5.16 -2.157 -6.706 -3.691 c -1.209 -1.199 -1.78 -2.158 -2.182 -3.662 c -0.348 -1.303 -0.348 -3.597 0 -4.907 c 0.716 -2.691 2.497 -4.865 4.999 -6.102 c 1.513 -0.747 2.817 -1.039 4.642 -1.036 c 3.157 0.004 5.518 0.946 7.572 3.019 c 1.622 1.637 2.382 3.193 2.632 5.392 c 0.243 2.14 -0.554 3.217 -2.299 3.106 c -1.126 -0.072 -1.842 -0.738 -1.971 -1.835 c -0.231 -1.95 -0.655 -2.975 -1.641 -3.961 c -1.922 -1.922 -5.232 -2.263 -7.534 -0.775 c -2.353 1.521 -2.969 5 -1.279 7.214 c 0.881 1.153 2.372 2.003 5.897 3.361 c 2.732 1.053 3.703 1.506 4.909 2.292 c 1.77 1.153 2.928 2.554 3.517 4.251 c 1.31 3.776 0.112 8.142 -2.91 10.607 c -0.926 0.755 -2.571 1.573 -3.783 1.881 C 11.928 54.545 9.729 54.659 8.68 54.493 L 8.68 54.493 z" style="stroke: none; stroke-width: 1; stroke-dasharray: none; stroke-linecap: butt; stroke-linejoin: miter; stroke-miterlimit: 10; fill: rgb(0,214,57); fill-rule: nonzero; opacity: 1;" transform=" matrix(1 0 0 1 0 0) " stroke-linecap="round"/>
	<path d="M 31.294 54.481 c -3.267 -0.468 -6.426 -2.84 -7.83 -5.879 c -0.7 -1.515 -0.93 -2.624 -0.92 -4.434 c 0.01 -1.887 0.24 -2.91 1.016 -4.519 c 1.022 -2.12 2.652 -3.726 4.83 -4.76 c 1.562 -0.741 2.399 -0.942 4.226 -1.016 c 2.367 -0.095 4.171 0.325 5.971 1.393 c 0.891 0.528 2.327 1.832 2.944 2.674 c 0.636 0.867 1.352 2.411 1.683 3.632 c 0.304 1.12 0.307 1.17 0.35 6.168 c 0.039 4.502 0.022 5.094 -0.154 5.555 c -0.624 1.633 -3.234 1.737 -4.038 0.16 c -0.205 -0.403 -0.227 -0.812 -0.273 -5.243 c -0.042 -4.011 -0.082 -4.931 -0.247 -5.559 c -0.498 -1.901 -1.665 -3.439 -3.169 -4.179 c -3.618 -1.781 -7.811 0.402 -8.59 4.472 c -0.213 1.112 -0.212 1.538 0.007 2.573 c 0.236 1.119 0.771 2.159 1.537 2.986 c 1.546 1.67 3.227 2.188 5.746 1.772 c 1.214 -0.201 1.695 -0.107 2.271 0.442 c 1.215 1.159 0.754 2.767 -0.98 3.416 C 34.448 54.592 32.918 54.713 31.294 54.481 L 31.294 54.481 z" style="stroke: none; stroke-width: 1; stroke-dasharray: none; stroke-linecap: butt; stroke-linejoin: miter; stroke-miterlimit: 10; fill: rgb(0,214,57); fill-rule: nonzero; opacity: 1;" transform=" matrix(1 0 0 1 0 0) " stroke-linecap="round"/>
	<path d="M 55.154 70.219 c -4.174 -0.559 -7.628 -3.195 -8.802 -6.719 c -0.986 -2.96 -0.405 -5.248 1.386 -5.45 c 0.81 -0.091 1.335 0.055 1.841 0.511 c 0.518 0.468 0.652 0.815 0.766 1.979 c 0.333 3.408 2.846 5.695 6.259 5.695 c 1.231 0 1.998 -0.166 3.034 -0.658 c 2.005 -0.952 3.067 -2.764 2.947 -5.031 c -0.08 -1.518 -0.71 -2.675 -1.974 -3.625 c -0.987 -0.742 -2.35 -1.365 -4.917 -2.248 c -3.553 -1.222 -5.164 -2.005 -6.678 -3.245 c -2.816 -2.306 -3.882 -6.542 -2.64 -10.489 c 0.53 -1.684 1.233 -2.838 2.527 -4.147 c 1.93 -1.953 4.443 -2.957 7.391 -2.953 c 5.319 0.006 9.635 3.305 10.608 8.109 c 0.152 0.749 0.183 1.315 0.132 2.393 c -0.106 2.221 -0.654 3.809 -1.663 4.819 c -1.134 1.134 -2.875 0.933 -3.554 -0.41 c -0.338 -0.67 -0.33 -1.07 0.043 -1.94 c 0.555 -1.298 0.75 -2.051 0.75 -2.899 c 0 -1.629 -0.546 -2.992 -1.664 -4.157 c -0.82 -0.854 -1.735 -1.373 -2.984 -1.692 c -3.21 -0.821 -6.318 0.808 -7.336 3.845 c -0.362 1.079 -0.363 2.717 -0.003 3.729 c 0.338 0.95 0.968 1.835 1.762 2.475 c 0.894 0.721 2.871 1.674 5.06 2.44 c 3.536 1.237 4.735 1.796 6.238 2.91 c 1.537 1.139 2.467 2.457 3.053 4.328 c 0.237 0.755 0.275 1.12 0.275 2.637 c 0 1.481 -0.042 1.906 -0.265 2.676 c -1.044 3.603 -3.834 6.133 -7.661 6.948 C 58.042 70.271 56.152 70.352 55.154 70.219 L 55.154 70.219 z" style="stroke: none; stroke-width: 1; stroke-dasharray: none; stroke-linecap: butt; stroke-linejoin: miter; stroke-miterlimit: 10; fill: rgb(0,214,57); fill-rule: nonzero; opacity: 1;" transform=" matrix(1 0 0 1 0 0) " stroke-linecap="round"/>
	<path d="M 78.55 54.489 c -3.71 -0.544 -6.825 -2.854 -8.332 -6.178 c -1.147 -2.53 -1.122 -5.852 0.063 -8.418 c 1.294 -2.802 3.703 -4.857 6.706 -5.723 c 1.275 -0.368 4.219 -0.394 5.576 -0.049 c 4.486 1.139 7.396 4.543 7.436 8.697 c 0.01 0.957 -0.022 1.115 -0.334 1.684 c -0.207 0.378 -0.54 0.763 -0.837 0.967 c -0.901 0.62 -1.482 0.694 -5.443 0.694 c -3.491 0 -3.604 -0.007 -4.106 -0.264 c -0.691 -0.353 -0.969 -0.763 -1.03 -1.521 c -0.041 -0.51 -0.001 -0.693 0.225 -1.021 c 0.607 -0.885 0.605 -0.885 3.873 -0.95 c 2.764 -0.055 2.946 -0.073 3.109 -0.293 c 0.356 -0.484 -0.127 -1.742 -1.006 -2.622 c -1.071 -1.071 -2.634 -1.665 -4.368 -1.66 c -1.824 0.006 -3.09 0.52 -4.326 1.757 c -2.539 2.542 -2.591 6.53 -0.117 9.052 c 1.263 1.287 2.682 1.866 4.58 1.866 c 1.882 0 2.636 -0.256 5.573 -1.891 c 2.572 -1.432 4.555 1.219 2.412 3.224 C 86.031 53.871 81.959 54.989 78.55 54.489 L 78.55 54.489 z" style="stroke: none; stroke-width: 1; stroke-dasharray: none; stroke-linecap: butt; stroke-linejoin: miter; stroke-miterlimit: 10; fill: rgb(0,214,57); fill-rule: nonzero; opacity: 1;" transform=" matrix(1 0 0 1 0 0) " stroke-linecap="round"/>
</g>
</svg>